<svg xmlns="http://www.w3.org/2000/svg" viewBox="0 0 190 540" width="190" height="540"><g fill="none"><path fill="#44B449" d="M48 280.5v7.6l8.5 7.6L73 280.9v-8.2l-16.5 14.9zm-25.6 43.2v3.5l4.1 3.6 6.9-6.2v-3.8l-6.9 6.2z"/><path fill="#C0C0C0" d="M8 280.5v7.6l8.6 7.6L33 280.9v-8.2l-16.4 14.9z"/><path fill="#FE7A16" d="M45 190.7h29l-14.4-15z"/><path fill="#818185" d="M5 190.7h29l-14.5-15z"/><path fill="#FE7A16" d="M59.6 242.7l14.4-15H45zM6.5 322L0 329h13z"/><path fill="#818185" d="M7.2 386.2l-7-6.5v13zm46.9 87.1l-7-6.4v13zm-47.6.1l7 6.5v-13zm20.3-83.7l6.4-7h-13z"/><path fill="#B8B8B8" d="M6.5 341L0 348h13z"/><path fill="#818185" d="M19.5 242.7l14.5-15H5z"/><path fill="#FFD83D" d="M59.6 137.5l-6.7 4.9 2.4-8.1-6.6-4.8H57l2.6-8.1 2.6 8.1h8.3l-6.6 4.8 2.4 8.1z"/><path fill="#EAC328" d="M59.6 123.1l2 6.1.2.7h7l-5.3 3.8-.6.4.2.7 2 6.1-5.3-3.8-.6-.4-.6.4-5.3 3.8 2-6.1.2-.7-.6-.4-5.3-3.8h7l.2-.7 2.8-6.1zm0-3.4l-3 9.1H47l7.7 5.7-3 9.1 7.7-5.7 7.7 5.7-3-9.1 7.7-5.7h-9.6l-2.6-9.1z"/><path fill="#C0C0C0" d="M19.5 119.7l2.9 9.2H32l-7.7 5.6 3 9.2-7.8-5.7-7.8 5.7 3-9.2-7.7-5.6h9.6z"/><circle cx="65" cy="404.7" r="3" fill="#C96"/><circle cx="85" cy="404.7" r="3" fill="#C5C5C5"/><circle cx="105" cy="404.7" r="3" fill="#FC0"/><path fill="#9E9E9E" d="M47.2 366.7h2v2h-2zm3 3h2v2h-2zm6 0h2v2h-2zm6 0h2v2h-2zm6 0h2v2h-2zm-14.9-3h2v2h-2zm6 0h2v2h-2zm6 0h2v2h-2zm6.1 0h2v2h-2z"/><path fill="#C5C5C5" d="M.2 399.7v31h3.4c.3-5.5 3.7-10.1 8.3-11.8v-1.2a6.72 6.72 0 0 1 3.8-12.3 6.72 6.72 0 0 1 3.8 12.3v1.2c4.6 1.7 8 6.3 8.3 11.8h3.4v-31H.2z"/><path fill="#FFF" d="M3.7 430.7H28c-.3-5.5-3.7-10.1-8.3-11.8v-1.2a6.72 6.72 0 0 0-3.8-12.3 6.72 6.72 0 0 0-3.8 12.3v1.2c-4.6 1.7-8.1 6.3-8.4 11.8z"/><path fill="#B8B8B8" d="M60.3 339.7h1.9v14h-1.9z"/><path fill="#CCC" d="M63.2 340.7h10.1v8H63.2z"/><path fill="#D35F5F" d="M60.3 319.8h1.9v14h-1.9z"/><path fill="#F89393" d="M63.2 320.8h10.1v8H63.2z"/><path fill="#FE6502" d="M80.3 319.8h14v14h-14z"/><path fill="#FFF" d="M83.5 329.2c-.8 0-1.4.6-1.4 1.4 0 .8.6 1.4 1.4 1.4.8 0 1.4-.6 1.4-1.4 0-.7-.6-1.4-1.4-1.4zm-1.4-4v2a4.76 4.76 0 0 1 4.8 4.8h2c.1-3.8-3-6.8-6.8-6.8zm0-3.6v2c4.6 0 8.4 3.8 8.4 8.4h2c0-5.7-4.7-10.4-10.4-10.4z"/><path d="M22.6 346.8l-.7 3.2 3.2-.7zm4.41-4.21l2.48 2.48-3.61 3.6-2.47-2.47zM29.1 341c-.4 0-.8.1-1.1.4l-.7.7 2.5 2.5.7-.7c.2-.3.4-.7.4-1.1 0-1-.8-1.8-1.8-1.8z" fill="#7A7A7A"/><g transform="translate(100 445)"><circle cx="7" cy="6.5" r="6.5" fill="#C03433"/><path fill="#FFF" d="M10.2 8.4L8.3 6.5l1.9-1.9v-.3l-.9-.9c-.1-.1-.1-.1-.2 0H9L7.1 5.3 5.2 3.4h-.3l-.9.9c-.1.1-.1.1 0 .2v.1l1.9 1.9L4 8.4v.3l.9.9c.1.1.1.1.2 0h.1l1.9-1.9L9 9.6h.3l.9-.9v-.3c0 .1 0 .1 0 0z"/></g><g transform="translate(40 340)"><circle cx="7.2" cy="6.6" r="6.5" fill="#C03433"/><path fill="#FFF" d="M10.4 8.5L8.5 6.6l1.9-1.9v-.3l-.9-.9c-.1-.1-.1-.1-.2 0h-.1L7.3 5.4 5.4 3.5h-.3l-.9.9c-.1.1-.1.1 0 .2v.1l1.9 1.9-1.9 1.9v.3l.9.9c.1.1.1.1.2 0h.1l1.9-1.9 1.9 1.9h.3l.9-.9v-.3c0 .1 0 0 0 0z"/></g><g transform="translate(40 319)"><circle cx="7.2" cy="6.8" r="6.5" fill="#CCC"/><path fill="#FFF" d="M10.4 8.8L8.5 6.9 10.4 5v-.3l-.9-.9c-.1-.1-.1-.1-.2 0h-.1l-2 1.8-1.9-1.9H5l-.9.9c-.1.1-.1.1 0 .2v.1L6 6.8 4.1 8.7V9l.9.9c.1.1.1.1.2 0h.1L7.2 8l1.9 1.9h.3l.9-.9c.1 0 .1-.1.1-.2z"/></g><path fill="#BCBBBB" d="M41.3 46.3H38V43h-1.5v8.1H38v-3.5h3.3v3.6h1.6V43h-1.6v3.3zm5.9-3.4c-.8 0-1.3.1-1.9.4l-.1.1c-.3.2-.5.3-.9.8l-.1.2 1.2 1 .1-.2c.2-.3.4-.4.6-.5.3-.1.7-.2 1.1-.2 1.3 0 1.8.4 1.8 1.4v.5h-2.1c-1.8 0-2.9.9-2.9 2.5s1.1 2.5 2.9 2.5c.5 0 1-.1 1.5-.3.2-.1.3-.2.5-.3v.6h1.7v-5.7c0-1.9-1.1-2.8-3.4-2.8zm1.7 5.2c0 1.2-.5 1.7-1.8 1.7-1.4 0-1.7-.4-1.7-1.1 0-.5.2-1.2 1.6-1.2h1.9v.6zm9.4-5.1c-.6 0-1 .1-1.4.3-.2.1-.3.2-.5.3V43h-1.6v11.6h1.6v-4.1l.1.1c.2.2.3.3.6.4l.2.1c.4.1.7.2 1.1.2 2.1 0 3-1.2 3-4 .1-2.9-1-4.3-3.1-4.3zm0 6.8c-1.1 0-1.8-.5-1.8-2.7 0-2.4.9-2.7 1.7-2.7 1.1 0 1.8.5 1.8 2.7 0 2.4-.8 2.7-1.7 2.7zm7.2-1.2l-2-5.8h-1.6l2.9 7.7-.6 1.4c-.3.7-.5.8-1.1.8h-.6v1.5h.7c1 0 1.8-.6 2.2-1.6l3.6-9.9h-1.6l-1.9 5.9zm9.3.4c-.2.1-.3.3-.4.4-.2.2-.3.2-.5.3-.2.1-.4.1-.7.1-1.4 0-2.1-.9-2.1-2.7 0-1.2.4-2.7 2.1-2.7.2 0 .5 0 .7.1.2.1.4.2.6.5l.1.2 1.2-1-.1-.2c-.5-.6-.8-.8-1.3-1-.4-.1-.9-.3-1.4-.3-2.2 0-3.6 1.6-3.6 4.2s1.4 4.2 3.6 4.2c.5 0 1-.1 1.3-.2.4-.1.6-.3 1-.5.1-.1.3-.2.4-.3l.2-.2-1.2-1 .1.1zm7.2 0c-.2.1-.3.3-.4.4-.2.2-.3.2-.5.3-.2.1-.4.1-.7.1-1.4 0-2.1-.9-2.1-2.7 0-1.2.4-2.7 2.1-2.7.2 0 .5 0 .7.1.2.1.4.2.7.6l.1.2 1.2-1-.1-.2c-.5-.6-.8-.8-1.2-1-.2-.1-.4-.1-.6-.2-.2-.1-.4-.1-.7-.2h-.1c-2.2 0-3.6 1.6-3.6 4.2s1.4 4.2 3.6 4.2c.5 0 1-.1 1.4-.2.3-.1.5-.2.8-.5.2-.1.3-.2.6-.4l.2-.2-1.2-1-.2.2zm9.1-6h-2L86 46.3V43h-1.6v8.2H86v-3.7l3.3 3.7h2l-4-4.3 3.8-3.9zm3.3 0c-1 0-1.8.3-2.4.9-.7.7-1 1.6-1 3.2s.3 2.5 1 3.2c.6.6 1.4.9 2.4.9s1.8-.3 2.4-.9c.7-.7 1-1.6 1-3.2s-.3-2.5-1-3.2c-.7-.6-1.6-.9-2.4-.9zm1.3 6.2c-.3.3-.8.5-1.3.5s-.9-.2-1.3-.5c-.4-.4-.5-.9-.5-2.2 0-1.2.1-1.8.5-2.2.3-.3.7-.4 1.3-.5.5 0 .9.2 1.2.5.4.4.5 1 .5 2.2.1 1.2 0 1.8-.4 2.2zm9.8-6.2l-2.5 4.9-2.5-4.9h-1.4v8.2h1.5v-4.9l1.9 3.6h1.1l1.8-3.5v4.8h1.6V43h-1.5z"/><path fill="#222426" d="M42.8 31.1l-2.2-.2c-1.7-.1-2.3-.8-2.3-2 0-1.4 1-2.2 3-2.2 1.4 0 2.6.3 3.6 1.1l1.3-1.3c-1.2-1-2.9-1.4-4.8-1.4-2.9 0-4.9 1.5-4.9 3.9 0 2.2 1.4 3.4 4 3.6l2.2.2c1.6.1 2.2.8 2.2 2 0 1.6-1.4 2.4-3.6 2.4-1.7 0-3.1-.4-4.2-1.6l-1.3 1.3c1.5 1.4 3.2 1.9 5.5 1.9 3.2 0 5.5-1.5 5.5-4.1 0-2.5-1.6-3.4-4-3.6zm16.8-6c-2.2 0-3.5.4-4.7 1.9l1.3 1.3c.8-1.1 1.7-1.5 3.4-1.5 2.5 0 3.4 1 3.4 2.9V31h-4c-3 0-4.6 1.5-4.6 3.9 0 1.1.4 2.1 1 2.7.8.9 1.9 1.2 3.8 1.2 1.8 0 2.8-.4 3.9-1.4v1.3h2v-9.1c-.1-3-1.9-4.5-5.5-4.5zm3.5 8.8c0 1.1-.2 1.9-.7 2.3-.8.8-1.9.9-3 .9-2.1 0-3.1-.7-3.1-2.3 0-1.6 1-2.4 3-2.4h3.8v1.5zm9.6-7.1c1.3 0 2.1.4 3.1 1.5l1.3-1.3c-1.4-1.5-2.5-2-4.4-2-3.4 0-5.9 2.3-5.9 6.9 0 4.6 2.6 6.9 5.9 6.9 1.9 0 3-.5 4.4-2l-1.3-1.3c-1 1.1-1.8 1.5-3.1 1.5s-2.4-.5-3.1-1.5c-.6-.9-.9-1.9-.9-3.6 0-1.7.2-2.7.9-3.6.7-1 1.8-1.5 3.1-1.5zm16.8-1.6h-2.4L81 31.1V19.2h-2v19.4h2v-4.9l2.4-2.4 4.5 7.3h2.4l-5.6-8.7 4.8-4.7zm9.3-.7c-2.1 0-3.5.8-4.3 1.7-1.3 1.3-1.6 2.9-1.6 5.4 0 2.5.3 4.1 1.6 5.4.9.9 2.3 1.7 4.3 1.7 2.1 0 3.5-.8 4.3-1.7 1.3-1.3 1.6-2.9 1.6-5.4 0-2.5-.3-4.1-1.6-5.4-.8-.9-2.3-1.7-4.3-1.7zm1.6 10.6c-.4.4-.9.6-1.6.6-.7 0-1.2-.2-1.6-.6-.7-.7-.8-2-.8-3.4s.1-2.7.8-3.4c.4-.4.9-.6 1.6-.6.7 0 1.2.2 1.6.6.7.7.8 1.9.8 3.4 0 1.4-.1 2.6-.8 3.4zM114 24.7l-2.8 8.6-2.8-8.6h-3.7l5.2 14h2.7l5.1-14H114zm9.6-.2c-3.6 0-6.1 2.6-6.1 7.1 0 5.7 3.2 7.2 6.5 7.2 2.5 0 3.9-.8 5.3-2.2l-2.1-2.1c-.9.9-1.6 1.3-3.2 1.3-2 0-3.1-1.3-3.1-3.1h8.8v-1.6c0-3.8-2.2-6.6-6.1-6.6zm-2.6 5.9c0-.6.1-1 .3-1.5.4-.8 1.2-1.4 2.3-1.4 1.2 0 2 .6 2.3 1.4.2.5.3.9.3 1.5H121zm13.9-4.4v-1.3h-3.4v14h3.5v-8.4c0-1.8 1.2-2.6 2.3-2.6.9 0 1.3.3 1.8.8l2.6-2.6c-1-1-1.9-1.3-3.3-1.3-1.5-.1-2.9.6-3.5 1.4zm7.9-2.8v15.4h3.5v-11h2.6v-2.7h-2.6v-1.5c0-.8.4-1.3 1.2-1.3h1.3v-3h-2c-2.8.1-4 2.1-4 4.1zm20.4 1.3c-2.1 0-3.5.8-4.3 1.7-1.3 1.3-1.6 2.9-1.6 5.4 0 2.5.3 4.1 1.6 5.4.9.9 2.3 1.7 4.3 1.7 2.1 0 3.5-.8 4.3-1.7 1.3-1.3 1.6-2.9 1.6-5.4 0-2.5-.3-4.1-1.6-5.4-.8-.9-2.2-1.7-4.3-1.7zm1.6 10.6c-.4.4-.9.6-1.6.6-.7 0-1.2-.2-1.6-.6-.7-.7-.8-2-.8-3.4s.1-2.7.8-3.4c.4-.4.9-.6 1.6-.6.7 0 1.2.2 1.6.6.7.7.8 1.9.8 3.4 0 1.4-.1 2.6-.8 3.4zm20.8-10.4l-2.3 8.6-2.8-8.6H178l-2.8 8.6-2.4-8.6h-3.7l4.3 14h2.9l2.9-8.8 2.9 8.8h2.9l4.3-14h-3.7zM154 34.4V19.2h-3.5v15.4c0 2 1.2 4 4.1 4h2v-3h-1.3c-1 .1-1.3-.3-1.3-1.2zM52.2 27.3l1.8-1.8h-3.7v-4.4h-2V35c0 2 1.1 3.6 3.4 3.6h1.4v-1.7h-1c-1.3 0-1.8-.7-1.8-2v-7.7l1.9.1c0-.1 0 0 0 0z"/><path fill="#BCBBBB" d="M26.5 42V32h3.3v13.3H0V32h3.3v10z"/><path fill="#F48024" d="M7 31.1l16.2 3.4.7-3.2-16.2-3.4-.7 3.2zm2.1-7.8l15 7 1.4-3-15-7-1.4 3zm4.2-7.4L26 26.5l2.1-2.5-12.7-10.6-2.1 2.5zm8.2-7.8l-2.7 2 9.9 13.3 2.7-2-9.9-13.3zM6.6 38.6h16.6v-3.3H6.6v3.3z"/><path fill="#BCBBBB" d="M32.6 531.15H30v-2.6h-1.18v6.38H30v-2.76h2.6v2.84h1.27v-6.46H32.6v2.6zm4.66-2.68a3 3 0 0 0-1.5.32l-.08.08c-.23.16-.4.23-.7.63l-.09.16.95.78.08-.15c.16-.24.32-.32.47-.4.24-.08.56-.16.87-.16 1.03 0 1.42.32 1.42 1.1v.4h-1.65c-1.42 0-2.3.7-2.3 1.97s.88 1.97 2.3 1.97c.4 0 .79-.08 1.18-.24.16-.08.24-.16.4-.24v.48h1.34v-4.5c0-1.49-.87-2.2-2.69-2.2zm1.35 4.1c0 .94-.4 1.34-1.43 1.34-1.1 0-1.34-.32-1.34-.87 0-.4.16-.94 1.26-.94h1.5v.47zm7.42-4.02c-.48 0-.8.08-1.1.24-.17.08-.25.16-.4.24v-.48h-1.27v9.14h1.27v-3.23l.08.08a1 1 0 0 0 .47.31l.16.08c.31.08.55.16.86.16 1.66 0 2.37-.95 2.37-3.15.08-2.29-.79-3.39-2.44-3.39zm0 5.36c-.87 0-1.42-.4-1.42-2.13 0-1.89.7-2.13 1.34-2.13.87 0 1.42.4 1.42 2.13 0 1.9-.63 2.13-1.34 2.13zm5.68-.95l-1.58-4.56h-1.26l2.29 6.06-.48 1.1c-.23.55-.4.63-.86.63h-.48v1.18h.56c.79 0 1.42-.47 1.73-1.26l2.84-7.8h-1.26l-1.5 4.65zm7.34.32c-.15.08-.23.23-.31.31-.16.16-.24.16-.4.24-.16.08-.31.08-.55.08-1.1 0-1.66-.71-1.66-2.13 0-.94.32-2.13 1.66-2.13.16 0 .4 0 .55.08.16.08.32.16.48.4l.07.15.95-.78-.08-.16c-.4-.47-.63-.63-1.02-.79-.32-.08-.71-.23-1.1-.23-1.75 0-2.85 1.26-2.85 3.3 0 2.05 1.1 3.31 2.84 3.31.4 0 .8-.08 1.03-.16.31-.08.47-.23.79-.4.08-.07.23-.15.31-.23l.16-.16-.95-.78.08.08zm5.69 0c-.16.08-.24.23-.32.31-.16.16-.24.16-.4.24-.15.08-.3.08-.55.08-1.1 0-1.65-.71-1.65-2.13 0-.94.31-2.13 1.65-2.13.16 0 .4 0 .56.08.15.08.31.16.55.48l.08.15.94-.78-.07-.16a2.6 2.6 0 0 0-.95-.79c-.16-.08-.32-.08-.48-.16-.15-.07-.31-.07-.55-.15h-.08c-1.73 0-2.84 1.26-2.84 3.3 0 2.05 1.1 3.31 2.84 3.31.4 0 .8-.08 1.1-.16.25-.08.4-.16.64-.4.16-.07.24-.15.47-.3l.16-.16-.95-.8-.15.17zm7.18-4.73h-1.58l-2.45 2.6v-2.6h-1.26v6.46h1.26v-2.91l2.61 2.9h1.58l-3.16-3.38 3-3.07zm2.6 0c-.78 0-1.41.24-1.89.71-.55.55-.79 1.26-.79 2.52s.24 1.97.8 2.52c.46.47 1.1.7 1.89.7a2.6 2.6 0 0 0 1.9-.7c.54-.55.78-1.26.78-2.52s-.24-1.97-.79-2.52a2.99 2.99 0 0 0-1.9-.7zm1.03 4.88c-.23.24-.63.4-1.02.4-.4 0-.71-.16-1.03-.4-.32-.31-.4-.7-.4-1.73 0-.94.09-1.42.4-1.73.24-.24.55-.32 1.03-.4.4 0 .7.16.94.4.32.32.4.79.4 1.73.08.95 0 1.42-.32 1.73zm7.74-4.88l-1.97 3.86-1.98-3.86h-1.1v6.46h1.18v-3.86l1.5 2.83h.87l1.42-2.75V535h1.26v-6.46H83.3z"/><path fill="#222426" d="M33.9 518.6l-1.7-.2c-1.3-.1-1.9-.6-1.9-1.6 0-1.1.8-1.8 2.4-1.8 1.1 0 2.1.3 2.8.8l1-1c-1-.8-2.3-1.1-3.8-1.1-2.3 0-3.9 1.2-3.9 3.1 0 1.8 1.1 2.7 3.2 2.9l1.8.2c1.2.1 1.8.6 1.8 1.6 0 1.3-1.1 1.9-2.8 1.9-1.3 0-2.5-.3-3.3-1.2l-1 1c1.2 1.1 2.6 1.5 4.4 1.5 2.6 0 4.3-1.2 4.3-3.2-.2-2-1.5-2.7-3.3-2.9zm13.3-4.8c-1.7 0-2.8.3-3.7 1.5l1 1c.6-.9 1.3-1.2 2.7-1.2 1.9 0 2.7.8 2.7 2.3v1h-3.2c-2.4 0-3.7 1.2-3.7 3.1 0 .8.3 1.6.8 2.2.7.7 1.5 1 3 1 1.4 0 2.2-.3 3.1-1.1v1h1.6v-7.2c-.1-2.4-1.5-3.6-4.3-3.6zm2.7 7c0 .9-.2 1.5-.5 1.8-.7.6-1.5.7-2.4.7-1.7 0-2.4-.6-2.4-1.8 0-1.2.8-1.9 2.4-1.9h3l-.1 1.2zm7.6-5.6c1 0 1.6.3 2.4 1.2l1-1c-1.1-1.2-2-1.6-3.5-1.6-2.7 0-4.7 1.8-4.7 5.5 0 3.6 2 5.5 4.7 5.5 1.5 0 2.4-.4 3.5-1.6l-1.1-1c-.8.9-1.4 1.2-2.4 1.2s-1.9-.4-2.5-1.2c-.5-.7-.7-1.5-.7-2.9 0-1.3.2-2.2.7-2.9.7-.8 1.6-1.2 2.6-1.2zm13.4-1.3H69l-4.8 4.7v-9.5h-1.6v15.4h1.6v-3.9l1.9-1.9 3.6 5.8h1.9l-4.4-6.9 3.7-3.7zm7.3-.5c-1.6 0-2.7.6-3.4 1.4-1 1-1.3 2.3-1.3 4.3s.3 3.3 1.3 4.3c.7.7 1.8 1.4 3.4 1.4 1.6 0 2.8-.6 3.4-1.4 1-1 1.3-2.3 1.3-4.3s-.3-3.3-1.3-4.3c-.6-.8-1.7-1.4-3.4-1.4zm1.3 8.3c-.3.3-.7.5-1.3.5-.6 0-1-.2-1.3-.5-.6-.6-.6-1.6-.6-2.7 0-1.2.1-2.1.6-2.7.3-.3.7-.5 1.3-.5.6 0 1 .2 1.3.5.6.6.6 1.5.6 2.7.1 1.2 0 2.2-.6 2.7zm10.8-8.2l-2.2 6.9-2.3-6.9h-2.9l4.1 11.1h2.2l4.1-11.1h-3zm7.6-.1c-2.9 0-4.8 2-4.8 5.7 0 4.5 2.5 5.7 5.1 5.7 2 0 3.1-.6 4.2-1.7l-1.7-1.6c-.7.7-1.3 1-2.5 1-1.6 0-2.4-1-2.4-2.5h6.9v-1.2c0-3.2-1.7-5.4-4.8-5.4zm-2.1 4.6c0-.5.1-.8.3-1.2.3-.7.9-1.2 1.9-1.2.9 0 1.6.5 1.9 1.2.2.4.2.7.3 1.2h-4.4zm11-3.4v-1.1h-2.7v11.1h2.8v-6.7c0-1.4.9-2 1.8-2 .7 0 1 .2 1.5.7l2.1-2.1c-.8-.8-1.5-1-2.6-1-1.3-.1-2.3.4-2.9 1.1zm6.3-2.3v12.3h2.8v-8.8h2v-2.1h-2v-1.2c0-.6.3-1 1-1h1.1v-2.3h-1.6c-2.3 0-3.3 1.6-3.3 3.1zm16.2 1.1c-1.6 0-2.7.6-3.4 1.4-1 1-1.3 2.3-1.3 4.3s.3 3.3 1.3 4.3c.7.7 1.8 1.4 3.4 1.4 1.6 0 2.8-.6 3.4-1.4 1-1 1.3-2.3 1.3-4.3s-.3-3.3-1.3-4.3c-.6-.8-1.8-1.4-3.4-1.4zm1.3 8.3c-.3.3-.7.5-1.3.5-.6 0-1-.2-1.3-.5-.6-.6-.6-1.6-.6-2.7 0-1.2.1-2.1.6-2.7.3-.3.7-.5 1.3-.5.6 0 1 .2 1.3.5.6.6.6 1.5.6 2.7 0 1.2 0 2.2-.6 2.7zm16.5-8.2l-1.8 6.9-2.3-6.9h-2l-2.3 6.9-1.8-6.9H134l3.4 11.1h2.3l2.3-7 2.3 7h2.3l3.4-11.1h-2.9zm-25.1 7.7v-12.1h-2.8v12.3c0 1.6 1 3.2 3.2 3.2h1.6v-2.3h-1c-.7 0-1-.4-1-1.1zm-80.7-5.6l1.4-1.4h-3v-3.5h-1.6v11.1c0 1.6.9 2.9 2.7 2.9h1.1v-1.3h-.8c-1 0-1.5-.6-1.5-1.6v-6.1h1.7v-.1z"/><path fill="#BCBBBB" d="M21 527v-8h3v11H0v-11h3v8"/><path fill="#F48024" d="M5.4 519.1l13.56 1.96.17-2.38-13.26-2.55-.47 2.97zm1.8-6.8l12 5.6 1.1-2.4-12-5.6-1.1 2.4zm3.4-5.9l10.2 8.5 1.7-2-10.2-8.5-1.7 2zm6.5-6.2l-2.1 1.6 7.9 10.6 2.1-1.6-7.9-10.6zM5 525h14v-3H5v3z"/></g></svg>